<svg xmlns="http://www.w3.org/2000/svg" xmlns:xlink="http://www.w3.org/1999/xlink" xmlns:lucid="lucid" width="468" height="860"><g transform="translate(418 360)" lucid:page-tab-id="0_0"><path d="M-500-500h1500V500H-500z" fill="#fff"/><path d="M-176-134.9H986v65.5H-176z" stroke="#000" stroke-opacity="0" stroke-width="2" fill="#fff" fill-opacity="0"/><path d="M-120.54-300c19.93 0 36.1 19.88 36.1 44.4s-16.17 44.4-36.1 44.4H-228.8c-19.92 0-36.08-19.88-36.08-44.4s16.16-44.4 36.1-44.4z" fill="#6db1ff"/><use xlink:href="#a" transform="matrix(1,0,0,1,-259.8794326241134,-295) translate(56.7890625 49.427083333333336)"/><path d="M-356.9-98.73a5 5 0 0 1 5-5H2.57a5 5 0 0 1 5 5V26.52a5 5 0 0 1-5 5H-351.9a5 5 0 0 1-5-5z" stroke="#282c33" stroke-width="2" fill-opacity="0"/><use xlink:href="#b" transform="matrix(1,0,0,1,-351.9007092198581,-98.73333333333323) translate(58.39898003472223 69.92795138888889)"/><use xlink:href="#c" transform="matrix(1,0,0,1,-351.9007092198581,-98.73333333333323) translate(135.58756510416669 69.92795138888889)"/><use xlink:href="#d" transform="matrix(1,0,0,1,-351.9007092198581,-98.73333333333323) translate(216.48817274305554 69.92795138888889)"/><path d="M-120.54 356.27c19.93 0 36.1 19.88 36.1 44.4s-16.17 44.4-36.1 44.4H-228.8c-19.92 0-36.08-19.88-36.08-44.4 0-24.53 16.16-44.4 36.1-44.4z" fill="#6db1ff"/><use xlink:href="#e" transform="matrix(1,0,0,1,-259.8794326517109,361.26666666666665) translate(63.045572916666664 49.427083333333336)"/><path d="M-356.9 121.27a5 5 0 0 1 5-5H2.57a5 5 0 0 1 5 5v125.25a5 5 0 0 1-5 5H-351.9a5 5 0 0 1-5-5z" stroke="#282c33" stroke-width="2" fill-opacity="0"/><use xlink:href="#f" transform="matrix(1,0,0,1,-351.9007092198581,121.26666666666677) translate(69.60069444444446 69.92795138888889)"/><use xlink:href="#c" transform="matrix(1,0,0,1,-351.9007092198581,121.26666666666677) translate(130.37760416666669 69.92795138888889)"/><use xlink:href="#g" transform="matrix(1,0,0,1,-351.9007092198581,121.26666666666677) translate(211.27821180555554 69.92795138888889)"/><use xlink:href="#h" transform="matrix(1,0,0,1,-351.9007092198581,121.26666666666677) translate(239.01692708333331 69.92795138888889)"/><path d="M-174.67 33.02v65.86" stroke="#3a414a" fill="none"/><path d="M-174.17 33.03h-1v-.5h1z" stroke="#3a414a" stroke-width=".05" fill="#3a414a"/><path d="M-174.67 113.65l-4.63-14.27h9.27z" stroke="#3a414a" fill="#3a414a"/><path d="M-174.67 253.02v86.86" stroke="#3a414a" fill="none"/><path d="M-174.17 253.03h-1v-.5h1z" stroke="#3a414a" stroke-width=".05" fill="#3a414a"/><path d="M-174.67 354.65l-4.63-14.27h9.27z" stroke="#3a414a" fill="#3a414a"/><path d="M-174.67-210.7v89.58" stroke="#3a414a" fill="none"/><path d="M-174.17-210.7h-1v-.5h1z" stroke="#3a414a" stroke-width=".05" fill="#3a414a"/><path d="M-174.67-106.35l-4.63-14.27h9.27z" stroke="#3a414a" fill="#3a414a"/><defs><path d="M631-137c179 0 314-70 314-231 0-71-25-127-75-166s-141-77-272-115c-165-47-285-106-360-175s-112-154-112-255c0-245 231-397 495-397 206 0 369 89 449 218 43 68 65 142 65 223H942c0-184-129-283-321-283-172 0-299 76-301 236 0 59 26 109 76 150s135 78 256 113c205 59 345 116 436 256 35 53 50 119 50 193-2 256-231 398-507 390C333 12 90-129 80-422h193c0 187 160 285 358 285" id="i"/><path d="M456 20C285 20 205-92 206-268v-671H9v-143h197v-262h185v262h202v143H391v671c-9 125 92 149 207 118V0c-49 13-96 20-142 20" id="j"/><path d="M561-1102c238-4 403 126 403 351v498c0 99 13 178 38 237V0H808c-11-21-19-59-26-114C696-25 593 20 474 20c-199 0-368-130-365-320 4-251 214-359 490-356h180v-85c-1-135-86-212-229-212-115 0-232 67-233 171H131c20-205 206-316 430-320zM294-326c0 117 90 185 207 185 122 0 239-75 278-162v-222H634c-227 0-340 66-340 199" id="k"/><path d="M663-916c-163-27-288 18-338 148V0H140v-1082h180l3 125c61-97 147-145 258-145 36 0 63 5 82 14v172" id="l"/><g id="a"><use transform="matrix(0.013020833333333334,0,0,0.013020833333333334,0,0)" xlink:href="#i"/><use transform="matrix(0.013020833333333334,0,0,0.013020833333333334,15.8203125,0)" xlink:href="#j"/><use transform="matrix(0.013020833333333334,0,0,0.013020833333333334,24.53125,0)" xlink:href="#k"/><use transform="matrix(0.013020833333333334,0,0,0.013020833333333334,39.036458333333336,0)" xlink:href="#l"/><use transform="matrix(0.013020833333333334,0,0,0.013020833333333334,48.7109375,0)" xlink:href="#j"/></g><path fill="#3d4752" d="M688-137c238 0 323-102 359-325h193c-32 297-228 482-552 482-361 0-569-299-569-680 0-197 8-360 73-497 88-186 257-317 513-319 316-2 509 195 535 488h-193c-31-212-118-330-342-330-272 0-397 224-393 523v141c-3 282 115 517 376 517" id="m"/><path fill="#3d4752" d="M663-916c-163-27-288 18-338 148V0H140v-1082h180l3 125c61-97 147-145 258-145 36 0 63 5 82 14v172" id="n"/><path fill="#3d4752" d="M599-131c141 0 220-65 285-146l113 88C906-50 770 20 589 20 281 21 93-214 93-545c0-223 93-397 233-485 74-48 154-72 240-72 300 2 449 218 445 537v77H278c0 197 129 357 321 357zm227-509c-3-180-88-310-260-310-170 0-264 140-282 310h542" id="o"/><path fill="#3d4752" d="M561-1102c238-4 403 126 403 351v498c0 99 13 178 38 237V0H808c-11-21-19-59-26-114C696-25 593 20 474 20c-199 0-368-130-365-320 4-251 214-359 490-356h180v-85c-1-135-86-212-229-212-115 0-232 67-233 171H131c20-205 206-316 430-320zM294-326c0 117 90 185 207 185 122 0 239-75 278-162v-222H634c-227 0-340 66-340 199" id="p"/><path fill="#3d4752" d="M456 20C285 20 205-92 206-268v-671H9v-143h197v-262h185v262h202v143H391v671c-9 125 92 149 207 118V0c-49 13-96 20-142 20" id="q"/><g id="b"><use transform="matrix(0.011935763888888888,0,0,0.011935763888888888,0,0)" xlink:href="#m"/><use transform="matrix(0.011935763888888888,0,0,0.011935763888888888,15.910373263888888,0)" xlink:href="#n"/><use transform="matrix(0.011935763888888888,0,0,0.011935763888888888,23.955078125,0)" xlink:href="#o"/><use transform="matrix(0.011935763888888888,0,0,0.011935763888888888,36.90538194444444,0)" xlink:href="#p"/><use transform="matrix(0.011935763888888888,0,0,0.011935763888888888,50.201822916666664,0)" xlink:href="#q"/><use transform="matrix(0.011935763888888888,0,0,0.011935763888888888,58.18684895833333,0)" xlink:href="#o"/></g><path fill="#3d4752" d="M1160-420C1159-145 963 0 674 0H169v-1456h476c294-1 476 112 476 388 0 153-99 253-216 302 146 38 255 167 255 346zM678-157c171 2 289-95 289-261 0-175-95-263-286-263H361v524h317zm250-912c-2-172-104-229-283-229H361v463h290c157 3 278-84 277-234" id="r"/><path fill="#3d4752" d="M491 20c-241-1-355-148-355-398v-704h185v699c0 164 67 246 200 246 141 0 235-53 282-158v-787h185V0H812l-4-107C736-22 630 20 491 20" id="s"/><path fill="#3d4752" d="M589-945c-131 0-219 81-264 174V0H140v-1082h175l6 136c83-104 191-156 324-156 229 0 346 129 346 387V0H806v-716c-2-153-65-229-217-229" id="t"/><path fill="#3d4752" d="M520 20C244 20 95-247 95-550c0-298 151-550 427-552 127 0 227 43 301 130v-564h185V0H838l-9-116C755-25 652 20 520 20zm48-965c-210 0-288 177-288 416 0 218 87 392 286 392 117 0 203-53 257-158v-497c-55-102-140-153-255-153" id="u"/><path fill="#3d4752" d="M341 0H156v-1536h185V0" id="v"/><g id="c"><use transform="matrix(0.011935763888888888,0,0,0.011935763888888888,0,0)" xlink:href="#r"/><use transform="matrix(0.011935763888888888,0,0,0.011935763888888888,15.218098958333332,0)" xlink:href="#s"/><use transform="matrix(0.011935763888888888,0,0,0.011935763888888888,28.693576388888886,0)" xlink:href="#t"/><use transform="matrix(0.011935763888888888,0,0,0.011935763888888888,42.18098958333333,0)" xlink:href="#u"/><use transform="matrix(0.011935763888888888,0,0,0.011935763888888888,55.96679687499999,0)" xlink:href="#v"/><use transform="matrix(0.011935763888888888,0,0,0.011935763888888888,61.89887152777777,0)" xlink:href="#o"/></g><path fill="#3d4752" d="M589-945c-131 0-219 81-264 174V0H140v-1536h185v585c82-101 189-151 320-151 229 0 346 129 346 387V0H806v-716c-2-153-65-229-217-229" id="w"/><path fill="#3d4752" d="M277-555c0 244 77 420 297 424 127 2 249-93 255-210h175C980-127 805 20 574 20 258 20 81-222 92-562c11-319 164-533 481-540 237-5 426 165 431 392H829c-7-133-115-242-256-240-209 4-296 166-296 395" id="x"/><path fill="#3d4752" d="M442-501L326-380V0H141v-1536h185v929c135-169 291-317 436-475h225L566-630 1036 0H819" id="y"/><path fill="#3d4752" d="M538-131c121 0 232-49 232-156 0-50-20-88-56-117-73-60-334-92-420-143-92-55-162-110-162-238 0-190 192-317 400-317 223 0 414 129 413 338H759c0-108-110-186-227-186-119 0-215 53-215 159 0 45 18 78 53 101 76 52 331 90 416 139 98 57 169 115 169 251C955-92 760 20 538 20c-176 0-314-68-386-174-38-55-57-115-57-179h185c6 129 116 202 258 202" id="z"/><g id="d"><use transform="matrix(0.011935763888888888,0,0,0.011935763888888888,0,0)" xlink:href="#m"/><use transform="matrix(0.011935763888888888,0,0,0.011935763888888888,15.910373263888888,0)" xlink:href="#w"/><use transform="matrix(0.011935763888888888,0,0,0.011935763888888888,29.373914930555554,0)" xlink:href="#o"/><use transform="matrix(0.011935763888888888,0,0,0.011935763888888888,42.32421875,0)" xlink:href="#x"/><use transform="matrix(0.011935763888888888,0,0,0.011935763888888888,55.119357638888886,0)" xlink:href="#y"/><use transform="matrix(0.011935763888888888,0,0,0.011935763888888888,67.50868055555556,0)" xlink:href="#z"/></g><path d="M992-673H361v516h733V0H169v-1456h915v158H361v468h631v157" id="A"/><path d="M589-945c-131 0-219 81-264 174V0H140v-1082h175l6 136c83-104 191-156 324-156 229 0 346 129 346 387V0H806v-716c-2-153-65-229-217-229" id="B"/><path d="M520 20C244 20 95-247 95-550c0-298 151-550 427-552 127 0 227 43 301 130v-564h185V0H838l-9-116C755-25 652 20 520 20zm48-965c-210 0-288 177-288 416 0 218 87 392 286 392 117 0 203-53 257-158v-497c-55-102-140-153-255-153" id="C"/><g id="e"><use transform="matrix(0.013020833333333334,0,0,0.013020833333333334,0,0)" xlink:href="#A"/><use transform="matrix(0.013020833333333334,0,0,0.013020833333333334,15.15625,0)" xlink:href="#B"/><use transform="matrix(0.013020833333333334,0,0,0.013020833333333334,29.869791666666668,0)" xlink:href="#C"/></g><path fill="#3d4752" d="M631-137c179 0 314-70 314-231 0-71-25-127-75-166s-141-77-272-115c-165-47-285-106-360-175s-112-154-112-255c0-245 231-397 495-397 206 0 369 89 449 218 43 68 65 142 65 223H942c0-184-129-283-321-283-172 0-299 76-301 236 0 59 26 109 76 150s135 78 256 113c205 59 345 116 436 256 35 53 50 119 50 193-2 256-231 398-507 390C333 12 90-129 80-422h193c0 187 160 285 358 285" id="D"/><g id="f"><use transform="matrix(0.011935763888888888,0,0,0.011935763888888888,0,0)" xlink:href="#D"/><use transform="matrix(0.011935763888888888,0,0,0.011935763888888888,14.501953124999998,0)" xlink:href="#o"/><use transform="matrix(0.011935763888888888,0,0,0.011935763888888888,27.452256944444443,0)" xlink:href="#t"/><use transform="matrix(0.011935763888888888,0,0,0.011935763888888888,40.939670138888886,0)" xlink:href="#u"/></g><path fill="#3d4752" d="M584 20C278 26 81-227 91-551c10-320 175-545 491-551 308-5 503 247 494 573-9 322-175 543-492 549zm-2-970c-208 0-305 185-305 421 0 216 106 398 307 398 211 0 307-186 307-420 0-214-109-399-309-399" id="E"/><g id="g"><use transform="matrix(0.011935763888888888,0,0,0.011935763888888888,0,0)" xlink:href="#q"/><use transform="matrix(0.011935763888888888,0,0,0.011935763888888888,7.746310763888888,0)" xlink:href="#E"/></g><path fill="#3d4752" d="M1161-1018c0 201-122 330-278 388l342 618V0h-206L703-589H361V0H168v-1456h482c310-2 511 139 511 438zm-193 0c0-187-120-280-313-280H361v552h295c179 3 313-101 312-272" id="F"/><path fill="#3d4752" d="M1216-1011c-1 297-202 441-512 441H361V0H169v-1456h537c297-6 510 164 510 445zm-192 2c1-178-126-288-307-289H361v571h345c196 1 318-92 318-282" id="G"/><g id="h"><use transform="matrix(0.011935763888888888,0,0,0.011935763888888888,0,0)" xlink:href="#F"/><use transform="matrix(0.011935763888888888,0,0,0.011935763888888888,15.050998263888888,0)" xlink:href="#G"/><use transform="matrix(0.011935763888888888,0,0,0.011935763888888888,30.472005208333325,0)" xlink:href="#m"/></g></defs></g></svg>