<svg xmlns="http://www.w3.org/2000/svg" xmlns:xlink="http://www.w3.org/1999/xlink" xmlns:lucid="lucid" width="1114" height="694"><g transform="translate(151 122)" lucid:page-tab-id="0_0"><path d="M-500-500h1500V500H-500z" fill="#fff"/><path d="M-176-134.9H986v65.5H-176z" stroke="#000" stroke-opacity="0" stroke-width="2" fill="#fff" fill-opacity="0"/><path d="M136.36-80c19.93 0 36.1 19.88 36.1 44.4s-16.17 44.4-36.1 44.4H28.1C8.2 8.8-7.97-11.08-7.97-35.6S8.18-80 28.12-80z" fill="#6db1ff"/><use xlink:href="#a" transform="matrix(1,0,0,1,-2.9787234042553337,-75) translate(56.7890625 49.427083333333336)"/><path d="M-100 140.4a5 5 0 0 1 5-5h354.47a5 5 0 0 1 5 5v125.25a5 5 0 0 1-5 5H-95a5 5 0 0 1-5-5z" stroke="#282c33" stroke-width="2" fill-opacity="0"/><use xlink:href="#b" transform="matrix(1,0,0,1,-95,140.39999999999992) translate(17.990451388888914 54.177951388888886)"/><use xlink:href="#c" transform="matrix(1,0,0,1,-95,140.39999999999992) translate(108.35611979166669 54.177951388888886)"/><use xlink:href="#d" transform="matrix(1,0,0,1,-95,140.39999999999992) translate(127.70399305555557 54.177951388888886)"/><use xlink:href="#e" transform="matrix(1,0,0,1,-95,140.39999999999992) translate(182.50108506944446 54.177951388888886)"/><use xlink:href="#f" transform="matrix(1,0,0,1,-95,140.39999999999992) translate(268.74891493055554 54.177951388888886)"/><use xlink:href="#g" transform="matrix(1,0,0,1,-95,140.39999999999992) translate(302.22873263888886 54.177951388888886)"/><use xlink:href="#h" transform="matrix(1,0,0,1,-95,140.39999999999992) translate(32.51302083333334 87.75)"/><path d="M377.23 140.4a5 5 0 0 1 5-5h170.43a5 5 0 0 1 5 5v125.25a5 5 0 0 1-5 5H382.23a5 5 0 0 1-5-5z" stroke="#282c33" stroke-width="2" fill-opacity="0"/><use xlink:href="#i" transform="matrix(1,0,0,1,382.2340425531911,140.39999999999998) translate(24.3232421875 57.9296875)"/><use xlink:href="#j" transform="matrix(1,0,0,1,382.2340425531911,140.39999999999998) translate(101.4228515625 57.9296875)"/><use xlink:href="#k" transform="matrix(1,0,0,1,382.2340425531911,140.39999999999998) translate(34.0107421875 83.7109375)"/><path d="M82.23 9.8v106.1" stroke="#282c33" stroke-width="2" fill="none"/><path d="M83.23 9.83h-2V8.8h2z" stroke="#282c33" stroke-width=".05" fill="#282c33"/><path d="M82.23 131.16L77.6 116.9h9.27z" stroke="#282c33" stroke-width="2" fill="#282c33"/><path d="M266.47 203.03h91.26" stroke="#282c33" stroke-width="2" fill="none"/><path d="M266.5 204.03h-1.03v-2h1.02z" stroke="#282c33" stroke-width=".05" fill="#282c33"/><path d="M373 203.03l-14.27 4.63v-9.27z" stroke="#282c33" stroke-width="2" fill="#282c33"/><path d="M600 385a5 5 0 0 1 5-5h170.43a5 5 0 0 1 5 5v102.8a5 5 0 0 1-5 5H605a5 5 0 0 1-5-5z" stroke="#282c33" stroke-width="2" fill-opacity="0"/><use xlink:href="#l" transform="matrix(1,0,0,1,605,385) translate(0.5732421875 44.3046875)"/><use xlink:href="#m" transform="matrix(1,0,0,1,605,385) translate(89.9970703125 44.3046875)"/><use xlink:href="#n" transform="matrix(1,0,0,1,605,385) translate(52.7265625 70.0859375)"/><path d="M136.36 392c19.93 0 36.1 19.88 36.1 44.4s-16.17 44.4-36.1 44.4H28.1c-19.92 0-36.08-19.88-36.08-44.4S8.18 392 28.12 392z" fill="#6db1ff"/><use xlink:href="#o" transform="matrix(1,0,0,1,-2.9787234042553337,397) translate(63.045572916666664 49.427083333333336)"/><path d="M810.2 272.15V430.4a6 6 0 0 1-6 6h-6.4" stroke="#3a414a" fill="none"/><path d="M810.7 272.17h-1v-.52h1z" stroke="#3a414a" stroke-width=".05" fill="#3a414a"/><path d="M783.04 436.4l14.27-4.63v9.27z" stroke="#3a414a" fill="#3a414a"/><path d="M720 140.4a5 5 0 0 1 5-5h170.43a5 5 0 0 1 5 5v125.25a5 5 0 0 1-5 5H725a5 5 0 0 1-5-5z" stroke="#282c33" stroke-width="2" fill-opacity="0"/><use xlink:href="#p" transform="matrix(1,0,0,1,725,140.39999999999998) translate(37.7412109375 57.9296875)"/><use xlink:href="#q" transform="matrix(1,0,0,1,725,140.39999999999998) translate(120.8271484375 57.9296875)"/><use xlink:href="#r" transform="matrix(1,0,0,1,725,140.39999999999998) translate(49.42578125 83.7109375)"/><path d="M296 385a5 5 0 0 1 5-5h170.44a5 5 0 0 1 5 5v102.8a5 5 0 0 1-5 5H301a5 5 0 0 1-5-5z" stroke="#282c33" stroke-width="2" fill-opacity="0"/><g><use xlink:href="#s" transform="matrix(1,0,0,1,301.01063829787233,384.99999999999994) translate(11.6376953125 57.1796875)"/><use xlink:href="#t" transform="matrix(1,0,0,1,301.01063829787233,384.99999999999994) translate(52.1943359375 57.1796875)"/><use xlink:href="#u" transform="matrix(1,0,0,1,301.01063829787233,384.99999999999994) translate(74.8896484375 57.1796875)"/></g><path d="M294.5 436.4H188.84" stroke="#3a414a" fill="none"/><path d="M295 436.9h-.5v-1h.5z" stroke="#3a414a" stroke-width=".05" fill="#3a414a"/><path d="M174.07 436.4l14.26-4.63v9.27z" stroke="#3a414a" fill="#3a414a"/><path d="M598.5 436.4H493.82" stroke="#3a414a" fill="none"/><path d="M599 436.9h-.5v-1h.5z" stroke="#3a414a" stroke-width=".05" fill="#3a414a"/><path d="M479.06 436.4l14.26-4.63v9.27z" stroke="#3a414a" fill="#3a414a"/><path d="M559.16 203.03h143.46" stroke="#3a414a" fill="none"/><path d="M559.17 203.53h-.5v-1h.5z" stroke="#3a414a" stroke-width=".05" fill="#3a414a"/><path d="M717.38 203.03l-14.26 4.63v-9.27z" stroke="#3a414a" fill="#3a414a"/><defs><path d="M631-137c179 0 314-70 314-231 0-71-25-127-75-166s-141-77-272-115c-165-47-285-106-360-175s-112-154-112-255c0-245 231-397 495-397 206 0 369 89 449 218 43 68 65 142 65 223H942c0-184-129-283-321-283-172 0-299 76-301 236 0 59 26 109 76 150s135 78 256 113c205 59 345 116 436 256 35 53 50 119 50 193-2 256-231 398-507 390C333 12 90-129 80-422h193c0 187 160 285 358 285" id="v"/><path d="M456 20C285 20 205-92 206-268v-671H9v-143h197v-262h185v262h202v143H391v671c-9 125 92 149 207 118V0c-49 13-96 20-142 20" id="w"/><path d="M561-1102c238-4 403 126 403 351v498c0 99 13 178 38 237V0H808c-11-21-19-59-26-114C696-25 593 20 474 20c-199 0-368-130-365-320 4-251 214-359 490-356h180v-85c-1-135-86-212-229-212-115 0-232 67-233 171H131c20-205 206-316 430-320zM294-326c0 117 90 185 207 185 122 0 239-75 278-162v-222H634c-227 0-340 66-340 199" id="x"/><path d="M663-916c-163-27-288 18-338 148V0H140v-1082h180l3 125c61-97 147-145 258-145 36 0 63 5 82 14v172" id="y"/><g id="a"><use transform="matrix(0.013020833333333334,0,0,0.013020833333333334,0,0)" xlink:href="#v"/><use transform="matrix(0.013020833333333334,0,0,0.013020833333333334,15.8203125,0)" xlink:href="#w"/><use transform="matrix(0.013020833333333334,0,0,0.013020833333333334,24.53125,0)" xlink:href="#x"/><use transform="matrix(0.013020833333333334,0,0,0.013020833333333334,39.036458333333336,0)" xlink:href="#y"/><use transform="matrix(0.013020833333333334,0,0,0.013020833333333334,48.7109375,0)" xlink:href="#w"/></g><path fill="#3d4752" d="M1161-1018c0 201-122 330-278 388l342 618V0h-206L703-589H361V0H168v-1456h482c310-2 511 139 511 438zm-193 0c0-187-120-280-313-280H361v552h295c179 3 313-101 312-272" id="z"/><path fill="#3d4752" d="M599-131c141 0 220-65 285-146l113 88C906-50 770 20 589 20 281 21 93-214 93-545c0-223 93-397 233-485 74-48 154-72 240-72 300 2 449 218 445 537v77H278c0 197 129 357 321 357zm227-509c-3-180-88-310-260-310-170 0-264 140-282 310h542" id="A"/><path fill="#3d4752" d="M277-555c0 244 77 420 297 424 127 2 249-93 255-210h175C980-127 805 20 574 20 258 20 81-222 92-562c11-319 164-533 481-540 237-5 426 165 431 392H829c-7-133-115-242-256-240-209 4-296 166-296 395" id="B"/><path fill="#3d4752" d="M341 0H156v-1082h185V0zm-91-1264c-68 0-108-42-109-105 0-62 41-107 109-107s110 44 110 107-42 105-110 105" id="C"/><path fill="#3d4752" d="M497-251l268-831h189L566 0H425L33-1082h189" id="D"/><g id="b"><use transform="matrix(0.011935763888888888,0,0,0.011935763888888888,0,0)" xlink:href="#z"/><use transform="matrix(0.011935763888888888,0,0,0.011935763888888888,15.050998263888888,0)" xlink:href="#A"/><use transform="matrix(0.011935763888888888,0,0,0.011935763888888888,28.001302083333325,0)" xlink:href="#B"/><use transform="matrix(0.011935763888888888,0,0,0.011935763888888888,40.796440972222214,0)" xlink:href="#A"/><use transform="matrix(0.011935763888888888,0,0,0.011935763888888888,53.74674479166665,0)" xlink:href="#C"/><use transform="matrix(0.011935763888888888,0,0,0.011935763888888888,59.67881944444444,0)" xlink:href="#D"/><use transform="matrix(0.011935763888888888,0,0,0.011935763888888888,71.36393229166666,0)" xlink:href="#A"/></g><path fill="#3d4752" d="M561-1102c238-4 403 126 403 351v498c0 99 13 178 38 237V0H808c-11-21-19-59-26-114C696-25 593 20 474 20c-199 0-368-130-365-320 4-251 214-359 490-356h180v-85c-1-135-86-212-229-212-115 0-232 67-233 171H131c20-205 206-316 430-320zM294-326c0 117 90 185 207 185 122 0 239-75 278-162v-222H634c-227 0-340 66-340 199" id="E"/><use transform="matrix(0.011935763888888888,0,0,0.011935763888888888,0,0)" xlink:href="#E" id="c"/><path fill="#3d4752" d="M1288 0h-193L362-1122V0H169v-1456h193l735 1127v-1127h191V0" id="F"/><path fill="#3d4752" d="M1098-255l208-827h185L1176 0h-150L763-820 507 0H357L43-1082h184l213 810 252-810h149" id="G"/><g id="d"><use transform="matrix(0.011935763888888888,0,0,0.011935763888888888,0,0)" xlink:href="#F"/><use transform="matrix(0.011935763888888888,0,0,0.011935763888888888,17.426215277777775,0)" xlink:href="#A"/><use transform="matrix(0.011935763888888888,0,0,0.011935763888888888,30.37651909722222,0)" xlink:href="#G"/></g><path fill="#3d4752" d="M665-137c214 0 337-121 336-332v-987h193v990c-3 300-218 486-529 486-309 0-526-181-525-484v-992h190v986c-1 210 123 333 335 333" id="H"/><path fill="#3d4752" d="M538-131c121 0 232-49 232-156 0-50-20-88-56-117-73-60-334-92-420-143-92-55-162-110-162-238 0-190 192-317 400-317 223 0 414 129 413 338H759c0-108-110-186-227-186-119 0-215 53-215 159 0 45 18 78 53 101 76 52 331 90 416 139 98 57 169 115 169 251C955-92 760 20 538 20c-176 0-314-68-386-174-38-55-57-115-57-179h185c6 129 116 202 258 202" id="I"/><path fill="#3d4752" d="M663-916c-163-27-288 18-338 148V0H140v-1082h180l3 125c61-97 147-145 258-145 36 0 63 5 82 14v172" id="J"/><path fill="#3d4752" d="M703-1476c426 0 599 333 586 795-11 408-187 701-584 701-422 0-587-333-587-793 0-282 106-507 280-617 89-56 190-86 305-86zm2 1333c312 0 393-279 393-632 0-308-116-536-395-536-269 0-394 232-394 523v107c-4 298 123 538 396 538" id="K"/><path fill="#3d4752" d="M632-1102c291 0 422 251 422 573 0 297-141 548-419 549-131 0-235-42-310-125v521H140v-1498h169l9 120c75-93 180-140 314-140zm-53 971c207 0 290-180 290-419 0-218-92-395-292-395-112 0-196 50-252 149v517c55 99 140 148 254 148" id="L"/><g id="e"><use transform="matrix(0.011935763888888888,0,0,0.011935763888888888,0,0)" xlink:href="#H"/><use transform="matrix(0.011935763888888888,0,0,0.011935763888888888,15.850694444444443,0)" xlink:href="#I"/><use transform="matrix(0.011935763888888888,0,0,0.011935763888888888,28.45486111111111,0)" xlink:href="#A"/><use transform="matrix(0.011935763888888888,0,0,0.011935763888888888,41.40516493055555,0)" xlink:href="#J"/><use transform="matrix(0.011935763888888888,0,0,0.011935763888888888,49.67664930555555,0)" xlink:href="#K"/><use transform="matrix(0.011935763888888888,0,0,0.011935763888888888,66.4822048611111,0)" xlink:href="#L"/></g><path fill="#3d4752" d="M584 20C278 26 81-227 91-551c10-320 175-545 491-551 308-5 503 247 494 573-9 322-175 543-492 549zm-2-970c-208 0-305 185-305 421 0 216 106 398 307 398 211 0 307-186 307-420 0-214-109-399-309-399" id="M"/><path fill="#3d4752" d="M589-945c-131 0-219 81-264 174V0H140v-1082h175l6 136c83-104 191-156 324-156 229 0 346 129 346 387V0H806v-716c-2-153-65-229-217-229" id="N"/><g id="f"><use transform="matrix(0.011935763888888888,0,0,0.011935763888888888,0,0)" xlink:href="#M"/><use transform="matrix(0.011935763888888888,0,0,0.011935763888888888,13.940972222222221,0)" xlink:href="#N"/></g><g id="g"><use transform="matrix(0.011935763888888888,0,0,0.011935763888888888,0,0)" xlink:href="#J"/><use transform="matrix(0.011935763888888888,0,0,0.011935763888888888,8.271484375,0)" xlink:href="#L"/><use transform="matrix(0.011935763888888888,0,0,0.011935763888888888,21.985677083333332,0)" xlink:href="#B"/></g><path d="M177 125H18l608-1581h158" id="O"/><path d="M599-131c141 0 220-65 285-146l113 88C906-50 770 20 589 20 281 21 93-214 93-545c0-223 93-397 233-485 74-48 154-72 240-72 300 2 449 218 445 537v77H278c0 197 129 357 321 357zm227-509c-3-180-88-310-260-310-170 0-264 140-282 310h542" id="P"/><path d="M589-945c-131 0-219 81-264 174V0H140v-1536h185v585c82-101 189-151 320-151 229 0 346 129 346 387V0H806v-716c-2-153-65-229-217-229" id="Q"/><path d="M920 151H4V0h916v151" id="R"/><path d="M589-945c-131 0-219 81-264 174V0H140v-1082h175l6 136c83-104 191-156 324-156 229 0 346 129 346 387V0H806v-716c-2-153-65-229-217-229" id="S"/><path d="M520 20C244 20 95-247 95-550c0-298 151-550 427-552 127 0 227 43 301 130v-564h185V0H838l-9-116C755-25 652 20 520 20zm48-965c-210 0-288 177-288 416 0 218 87 392 286 392 117 0 203-53 257-158v-497c-55-102-140-153-255-153" id="T"/><path d="M665-137c214 0 337-121 336-332v-987h193v990c-3 300-218 486-529 486-309 0-526-181-525-484v-992h190v986c-1 210 123 333 335 333" id="U"/><path d="M538-131c121 0 232-49 232-156 0-50-20-88-56-117-73-60-334-92-420-143-92-55-162-110-162-238 0-190 192-317 400-317 223 0 414 129 413 338H759c0-108-110-186-227-186-119 0-215 53-215 159 0 45 18 78 53 101 76 52 331 90 416 139 98 57 169 115 169 251C955-92 760 20 538 20c-176 0-314-68-386-174-38-55-57-115-57-179h185c6 129 116 202 258 202" id="V"/><path d="M703-1476c426 0 599 333 586 795-11 408-187 701-584 701-422 0-587-333-587-793 0-282 106-507 280-617 89-56 190-86 305-86zm2 1333c312 0 393-279 393-632 0-308-116-536-395-536-269 0-394 232-394 523v107c-4 298 123 538 396 538" id="W"/><path d="M632-1102c291 0 422 251 422 573 0 297-141 548-419 549-131 0-235-42-310-125v521H140v-1498h169l9 120c75-93 180-140 314-140zm-53 971c207 0 290-180 290-419 0-218-92-395-292-395-112 0-196 50-252 149v517c55 99 140 148 254 148" id="X"/><path d="M341 0H156v-1082h185V0zm-91-1264c-68 0-108-42-109-105 0-62 41-107 109-107s110 44 110 107-42 105-110 105" id="Y"/><path d="M584 20C278 26 81-227 91-551c10-320 175-545 491-551 308-5 503 247 494 573-9 322-175 543-492 549zm-2-970c-208 0-305 185-305 421 0 216 106 398 307 398 211 0 307-186 307-420 0-214-109-399-309-399" id="Z"/><g id="h"><use transform="matrix(0.013020833333333334,0,0,0.013020833333333334,0,0)" xlink:href="#O"/><use transform="matrix(0.013020833333333334,0,0,0.013020833333333334,10.989583333333334,0)" xlink:href="#P"/><use transform="matrix(0.013020833333333334,0,0,0.013020833333333334,25.1171875,0)" xlink:href="#w"/><use transform="matrix(0.013020833333333334,0,0,0.013020833333333334,33.828125,0)" xlink:href="#Q"/><use transform="matrix(0.013020833333333334,0,0,0.013020833333333334,48.515625,0)" xlink:href="#R"/><use transform="matrix(0.013020833333333334,0,0,0.013020833333333334,60.546875,0)" xlink:href="#v"/><use transform="matrix(0.013020833333333334,0,0,0.013020833333333334,76.3671875,0)" xlink:href="#P"/><use transform="matrix(0.013020833333333334,0,0,0.013020833333333334,90.49479166666667,0)" xlink:href="#S"/><use transform="matrix(0.013020833333333334,0,0,0.013020833333333334,105.20833333333334,0)" xlink:href="#T"/><use transform="matrix(0.013020833333333334,0,0,0.013020833333333334,120.24739583333334,0)" xlink:href="#U"/><use transform="matrix(0.013020833333333334,0,0,0.013020833333333334,137.5390625,0)" xlink:href="#V"/><use transform="matrix(0.013020833333333334,0,0,0.013020833333333334,151.2890625,0)" xlink:href="#P"/><use transform="matrix(0.013020833333333334,0,0,0.013020833333333334,165.41666666666666,0)" xlink:href="#y"/><use transform="matrix(0.013020833333333334,0,0,0.013020833333333334,174.44010416666666,0)" xlink:href="#W"/><use transform="matrix(0.013020833333333334,0,0,0.013020833333333334,192.7734375,0)" xlink:href="#X"/><use transform="matrix(0.013020833333333334,0,0,0.013020833333333334,207.734375,0)" xlink:href="#P"/><use transform="matrix(0.013020833333333334,0,0,0.013020833333333334,221.86197916666669,0)" xlink:href="#y"/><use transform="matrix(0.013020833333333334,0,0,0.013020833333333334,230.3645833333333,0)" xlink:href="#x"/><use transform="matrix(0.013020833333333334,0,0,0.013020833333333334,244.86979166666669,0)" xlink:href="#w"/><use transform="matrix(0.013020833333333334,0,0,0.013020833333333334,253.58072916666669,0)" xlink:href="#Y"/><use transform="matrix(0.013020833333333334,0,0,0.013020833333333334,260.0520833333333,0)" xlink:href="#Z"/><use transform="matrix(0.013020833333333334,0,0,0.013020833333333334,275.26041666666663,0)" xlink:href="#S"/></g><path fill="#3d4752" d="M651-255l416-1201h210L737 0H567L28-1456h209" id="aa"/><path fill="#3d4752" d="M341 0H156v-1536h185V0" id="ab"/><path fill="#3d4752" d="M520 20C244 20 95-247 95-550c0-298 151-550 427-552 127 0 227 43 301 130v-564h185V0H838l-9-116C755-25 652 20 520 20zm48-965c-210 0-288 177-288 416 0 218 87 392 286 392 117 0 203-53 257-158v-497c-55-102-140-153-255-153" id="ac"/><path fill="#3d4752" d="M456 20C285 20 205-92 206-268v-671H9v-143h197v-262h185v262h202v143H391v671c-9 125 92 149 207 118V0c-49 13-96 20-142 20" id="ad"/><g id="i"><use transform="matrix(0.009765625,0,0,0.009765625,0,0)" xlink:href="#aa"/><use transform="matrix(0.009765625,0,0,0.009765625,12.275390625,0)" xlink:href="#E"/><use transform="matrix(0.009765625,0,0,0.009765625,23.154296875,0)" xlink:href="#ab"/><use transform="matrix(0.009765625,0,0,0.009765625,28.0078125,0)" xlink:href="#C"/><use transform="matrix(0.009765625,0,0,0.009765625,32.861328125,0)" xlink:href="#ac"/><use transform="matrix(0.009765625,0,0,0.009765625,44.140625,0)" xlink:href="#E"/><use transform="matrix(0.009765625,0,0,0.009765625,55.01953125,0)" xlink:href="#ad"/><use transform="matrix(0.009765625,0,0,0.009765625,61.552734375,0)" xlink:href="#A"/></g><path fill="#3d4752" d="M375 0H183v-1456h192V0" id="ae"/><path fill="#3d4752" d="M491 20c-241-1-355-148-355-398v-704h185v699c0 164 67 246 200 246 141 0 235-53 282-158v-787h185V0H812l-4-107C736-22 630 20 491 20" id="af"/><g id="j"><use transform="matrix(0.009765625,0,0,0.009765625,0,0)" xlink:href="#ae"/><use transform="matrix(0.009765625,0,0,0.009765625,5.439453125,0)" xlink:href="#N"/><use transform="matrix(0.009765625,0,0,0.009765625,16.474609375,0)" xlink:href="#L"/><use transform="matrix(0.009765625,0,0,0.009765625,27.6953125,0)" xlink:href="#af"/><use transform="matrix(0.009765625,0,0,0.009765625,38.720703125,0)" xlink:href="#ad"/></g><path fill="#3d4752" d="M1216-1011c-1 297-202 441-512 441H361V0H169v-1456h537c297-6 510 164 510 445zm-192 2c1-178-126-288-307-289H361v571h345c196 1 318-92 318-282" id="ag"/><path fill="#3d4752" d="M1240-945c-141 0-250 95-250 227V0H804v-709c0-157-77-236-231-236-121 0-204 52-249 155V0H139v-1082h175l5 120c79-93 186-140 321-140 151 0 254 58 309 174 69-98 181-174 345-174 237 0 362 126 362 377V0h-185v-714c-2-159-67-231-231-231" id="ah"/><g id="k"><use transform="matrix(0.009765625,0,0,0.009765625,0,0)" xlink:href="#ag"/><use transform="matrix(0.009765625,0,0,0.009765625,12.509765625,0)" xlink:href="#E"/><use transform="matrix(0.009765625,0,0,0.009765625,23.388671875,0)" xlink:href="#J"/><use transform="matrix(0.009765625,0,0,0.009765625,29.765625,0)" xlink:href="#E"/><use transform="matrix(0.009765625,0,0,0.009765625,40.64453125,0)" xlink:href="#ah"/><use transform="matrix(0.009765625,0,0,0.009765625,58.173828125,0)" xlink:href="#A"/><use transform="matrix(0.009765625,0,0,0.009765625,68.76953125,0)" xlink:href="#ad"/><use transform="matrix(0.009765625,0,0,0.009765625,75.302734375,0)" xlink:href="#A"/><use transform="matrix(0.009765625,0,0,0.009765625,85.8984375,0)" xlink:href="#J"/><use transform="matrix(0.009765625,0,0,0.009765625,92.666015625,0)" xlink:href="#I"/></g><path fill="#3d4752" d="M417-1456L893-268l476-1188h249V0h-192c-4-403 4-794 18-1179L966 0H819L342-1176c15 384 23 773 19 1176H169v-1456h248" id="ai"/><g id="l"><use transform="matrix(0.009765625,0,0,0.009765625,0,0)" xlink:href="#ai"/><use transform="matrix(0.009765625,0,0,0.009765625,17.4609375,0)" xlink:href="#A"/><use transform="matrix(0.009765625,0,0,0.009765625,28.056640625,0)" xlink:href="#ah"/><use transform="matrix(0.009765625,0,0,0.009765625,45.5859375,0)" xlink:href="#L"/><use transform="matrix(0.009765625,0,0,0.009765625,56.806640625,0)" xlink:href="#M"/><use transform="matrix(0.009765625,0,0,0.009765625,68.212890625,0)" xlink:href="#M"/><use transform="matrix(0.009765625,0,0,0.009765625,79.619140625,0)" xlink:href="#ab"/></g><g id="m"><use transform="matrix(0.009765625,0,0,0.009765625,0,0)" xlink:href="#ae"/><use transform="matrix(0.009765625,0,0,0.009765625,5.439453125,0)" xlink:href="#N"/><use transform="matrix(0.009765625,0,0,0.009765625,16.474609375,0)" xlink:href="#B"/><use transform="matrix(0.009765625,0,0,0.009765625,26.943359375,0)" xlink:href="#ab"/><use transform="matrix(0.009765625,0,0,0.009765625,31.796875,0)" xlink:href="#af"/><use transform="matrix(0.009765625,0,0,0.009765625,42.822265625,0)" xlink:href="#I"/><use transform="matrix(0.009765625,0,0,0.009765625,53.134765625,0)" xlink:href="#C"/><use transform="matrix(0.009765625,0,0,0.009765625,57.98828125,0)" xlink:href="#M"/><use transform="matrix(0.009765625,0,0,0.009765625,69.39453125,0)" xlink:href="#N"/></g><path fill="#3d4752" d="M688-137c238 0 323-102 359-325h193c-32 297-228 482-552 482-361 0-569-299-569-680 0-197 8-360 73-497 88-186 257-317 513-319 316-2 509 195 535 488h-193c-31-212-118-330-342-330-272 0-397 224-393 523v141c-3 282 115 517 376 517" id="aj"/><path fill="#3d4752" d="M589-945c-131 0-219 81-264 174V0H140v-1536h185v585c82-101 189-151 320-151 229 0 346 129 346 387V0H806v-716c-2-153-65-229-217-229" id="ak"/><path fill="#3d4752" d="M442-501L326-380V0H141v-1536h185v929c135-169 291-317 436-475h225L566-630 1036 0H819" id="al"/><g id="n"><use transform="matrix(0.009765625,0,0,0.009765625,0,0)" xlink:href="#aj"/><use transform="matrix(0.009765625,0,0,0.009765625,13.017578125,0)" xlink:href="#ak"/><use transform="matrix(0.009765625,0,0,0.009765625,24.033203125,0)" xlink:href="#A"/><use transform="matrix(0.009765625,0,0,0.009765625,34.62890625,0)" xlink:href="#B"/><use transform="matrix(0.009765625,0,0,0.009765625,45.09765625,0)" xlink:href="#al"/><use transform="matrix(0.009765625,0,0,0.009765625,55.234375,0)" xlink:href="#I"/></g><path d="M992-673H361v516h733V0H169v-1456h915v158H361v468h631v157" id="am"/><g id="o"><use transform="matrix(0.013020833333333334,0,0,0.013020833333333334,0,0)" xlink:href="#am"/><use transform="matrix(0.013020833333333334,0,0,0.013020833333333334,15.15625,0)" xlink:href="#S"/><use transform="matrix(0.013020833333333334,0,0,0.013020833333333334,29.869791666666668,0)" xlink:href="#T"/></g><path fill="#3d4752" d="M631-137c179 0 314-70 314-231 0-71-25-127-75-166s-141-77-272-115c-165-47-285-106-360-175s-112-154-112-255c0-245 231-397 495-397 206 0 369 89 449 218 43 68 65 142 65 223H942c0-184-129-283-321-283-172 0-299 76-301 236 0 59 26 109 76 150s135 78 256 113c205 59 345 116 436 256 35 53 50 119 50 193-2 256-231 398-507 390C333 12 90-129 80-422h193c0 187 160 285 358 285" id="an"/><g id="p"><use transform="matrix(0.009765625,0,0,0.009765625,0,0)" xlink:href="#an"/><use transform="matrix(0.009765625,0,0,0.009765625,11.865234375,0)" xlink:href="#C"/><use transform="matrix(0.009765625,0,0,0.009765625,16.71875,0)" xlink:href="#ah"/><use transform="matrix(0.009765625,0,0,0.009765625,34.248046875,0)" xlink:href="#af"/><use transform="matrix(0.009765625,0,0,0.009765625,45.2734375,0)" xlink:href="#ab"/><use transform="matrix(0.009765625,0,0,0.009765625,50.126953125,0)" xlink:href="#E"/><use transform="matrix(0.009765625,0,0,0.009765625,61.005859375,0)" xlink:href="#ad"/><use transform="matrix(0.009765625,0,0,0.009765625,67.5390625,0)" xlink:href="#A"/></g><path fill="#3d4752" d="M572 20C306 25 99-136 101-391c0-70 20-134 59-193s113-127 223-205c-65-79-108-142-130-190s-33-96-33-143c-3-220 144-354 364-354 187 0 349 127 346 308-3 212-172 290-307 398l324 387c45-87 68-183 68-289h167c0 170-41 311-123 423L1267 0h-222l-97-115C862-36 726 17 572 20zM286-391c0 162 118 260 286 260 98 0 188-37 269-112L486-668c-110 72-200 183-200 277zm297-933c-109 0-180 87-178 196 0 64 39 144 118 240 93-79 236-119 236-280 0-91-82-156-176-156" id="ao"/><use transform="matrix(0.009765625,0,0,0.009765625,0,0)" xlink:href="#ao" id="q"/><g id="r"><use transform="matrix(0.009765625,0,0,0.009765625,0,0)" xlink:href="#aa"/><use transform="matrix(0.009765625,0,0,0.009765625,12.275390625,0)" xlink:href="#E"/><use transform="matrix(0.009765625,0,0,0.009765625,23.154296875,0)" xlink:href="#ab"/><use transform="matrix(0.009765625,0,0,0.009765625,28.0078125,0)" xlink:href="#C"/><use transform="matrix(0.009765625,0,0,0.009765625,32.861328125,0)" xlink:href="#ac"/><use transform="matrix(0.009765625,0,0,0.009765625,44.140625,0)" xlink:href="#E"/><use transform="matrix(0.009765625,0,0,0.009765625,55.01953125,0)" xlink:href="#ad"/><use transform="matrix(0.009765625,0,0,0.009765625,61.552734375,0)" xlink:href="#A"/></g><path fill="#3d4752" d="M973-380H363L226 0H28l556-1456h168L1309 0h-197zM421-538h495l-248-681" id="ap"/><g id="s"><use transform="matrix(0.009765625,0,0,0.009765625,0,0)" xlink:href="#ap"/><use transform="matrix(0.009765625,0,0,0.009765625,13.046875,0)" xlink:href="#ac"/><use transform="matrix(0.009765625,0,0,0.009765625,24.326171875,0)" xlink:href="#ac"/></g><g id="t"><use transform="matrix(0.009765625,0,0,0.009765625,0,0)" xlink:href="#ad"/><use transform="matrix(0.009765625,0,0,0.009765625,6.337890625,0)" xlink:href="#M"/></g><g id="u"><use transform="matrix(0.009765625,0,0,0.009765625,0,0)" xlink:href="#ai"/><use transform="matrix(0.009765625,0,0,0.009765625,17.4609375,0)" xlink:href="#A"/><use transform="matrix(0.009765625,0,0,0.009765625,28.056640625,0)" xlink:href="#ah"/><use transform="matrix(0.009765625,0,0,0.009765625,45.5859375,0)" xlink:href="#L"/><use transform="matrix(0.009765625,0,0,0.009765625,56.806640625,0)" xlink:href="#M"/><use transform="matrix(0.009765625,0,0,0.009765625,68.212890625,0)" xlink:href="#M"/><use transform="matrix(0.009765625,0,0,0.009765625,79.619140625,0)" xlink:href="#ab"/></g></defs></g></svg>