<svg version="1.1" xmlns="http://www.w3.org/2000/svg" viewBox="0 0 980.2100647015416 518.7640625" width="980.2100647015416" height="518.7640625">
  <!-- svg-source:excalidraw -->
  
  <defs>
    <style class="style-fonts">
      @font-face {
        font-family: "Virgil";
        src: url("https://excalidraw.com/Virgil.woff2");
      }
      @font-face {
        font-family: "Cascadia";
        src: url("https://excalidraw.com/Cascadia.woff2");
      }
    </style>
  </defs>
  <rect x="0" y="0" width="980.2100647015416" height="518.7640625" fill="#ffffff"></rect><g stroke-linecap="round" transform="translate(10 151.09661685777974) rotate(0 140.916015625 140.619140625)"><path d="M32 0 M32 0 C116.99 1.14, 201.39 -0.49, 249.83 0 M32 0 C88.08 -1.54, 144.85 -1.05, 249.83 0 M249.83 0 C269.83 1.52, 281.67 11.36, 281.83 32 M249.83 0 C273.42 0.03, 282.67 9.19, 281.83 32 M281.83 32 C283.79 78.04, 284.05 125.14, 281.83 249.24 M281.83 32 C284.05 100.47, 282.65 169.21, 281.83 249.24 M281.83 249.24 C281.01 270.85, 269.42 282.99, 249.83 281.24 M281.83 249.24 C283.62 268.64, 271.68 279.89, 249.83 281.24 M249.83 281.24 C192.34 279.99, 137.44 279.87, 32 281.24 M249.83 281.24 C173.03 279.22, 95.62 279.28, 32 281.24 M32 281.24 C9.35 281.63, 1.66 271.23, 0 249.24 M32 281.24 C9.73 281.64, 0.5 272.64, 0 249.24 M0 249.24 C1.29 162.44, -0.73 77.54, 0 32 M0 249.24 C-0.58 191.57, -0.1 134.49, 0 32 M0 32 C1.92 9.2, 11.98 -1.62, 32 0 M0 32 C0.01 12.94, 9.64 1.2, 32 0" stroke="#000000" stroke-width="1" fill="none"></path></g><g stroke-linecap="round" transform="translate(55.97265625 200.20599185777974) rotate(0 52.921875 20.2109375)"><path d="M11.76 -0.83 L99.25 -1.27 L103.37 5.63 L103.39 33.55 L104.19 38.25 L97.23 41.06 L5.63 40.8 L0.55 33.72 L-0.01 9.18 L3.3 2.29 L10.14 0.28" stroke="none" stroke-width="0" fill="#868e96"></path><path d="M10.11 0 M10.11 0 C33.93 0.58, 61.23 -0.17, 95.74 0 M10.11 0 C43.06 0.74, 75.95 0.55, 95.74 0 M95.74 0 C100.89 -1.39, 106.25 3.26, 105.84 10.11 M95.74 0 C104.1 1.2, 103.67 3.03, 105.84 10.11 M105.84 10.11 C105.26 17.84, 105.4 24.07, 105.84 30.32 M105.84 10.11 C105.28 16.59, 106.51 24.32, 105.84 30.32 M105.84 30.32 C104.45 35.41, 103 38.85, 95.74 40.42 M105.84 30.32 C104.17 36.24, 100.65 41.4, 95.74 40.42 M95.74 40.42 C73.76 40.64, 55.18 40.73, 10.11 40.42 M95.74 40.42 C62.47 39.85, 27.45 40.78, 10.11 40.42 M10.11 40.42 C2.94 41.35, -0.82 37.5, 0 30.32 M10.11 40.42 C1.27 42.65, 1.7 36.4, 0 30.32 M0 30.32 C-2.09 23.01, -0.74 16.14, 0 10.11 M0 30.32 C0.77 24.97, 0.11 20.62, 0 10.11 M0 10.11 C-0.52 2.25, 2.81 -1.58, 10.11 0 M0 10.11 C-0.42 3.36, 1.38 -0.43, 10.11 0" stroke="#000000" stroke-width="1" fill="none"></path></g><g stroke-linecap="round" transform="translate(70.31640625 217.28802310777974) rotate(0 52.921875 20.2109375)"><path d="M11.55 -0.33 L100.27 2.24 L103.77 6.89 L103.71 33.37 L101.37 38.63 L94.36 40.56 L5.47 38.15 L-1.23 35.7 L-1.79 10.74 L1.81 2.89 L8.44 0.52" stroke="none" stroke-width="0" fill="#868e96"></path><path d="M10.11 0 M10.11 0 C40.86 -1.71, 66.84 0.64, 95.74 0 M10.11 0 C41.85 -0.38, 72.35 -0.4, 95.74 0 M95.74 0 C104.13 1.11, 104.52 4.01, 105.84 10.11 M95.74 0 C101.4 1.22, 105.63 3.85, 105.84 10.11 M105.84 10.11 C107.65 15.68, 104.83 17.93, 105.84 30.32 M105.84 10.11 C105.95 16.32, 104.99 21.58, 105.84 30.32 M105.84 30.32 C105.82 38.71, 101.22 38.65, 95.74 40.42 M105.84 30.32 C104.43 38.86, 103.5 42.2, 95.74 40.42 M95.74 40.42 C62.82 39.23, 30.99 41.19, 10.11 40.42 M95.74 40.42 C73.71 41.3, 49.67 40.05, 10.11 40.42 M10.11 40.42 C1.41 40.82, -0.96 36.76, 0 30.32 M10.11 40.42 C4.85 40.55, 1.61 38.66, 0 30.32 M0 30.32 C-0.77 24.39, 2 20.03, 0 10.11 M0 30.32 C0.03 24.5, -0.35 16.94, 0 10.11 M0 10.11 C1.52 1.85, 5.13 -0.13, 10.11 0 M0 10.11 C0 3.92, 3.94 0.18, 10.11 0" stroke="#000000" stroke-width="1" fill="none"></path></g><g stroke-linecap="round" transform="translate(86.140625 234.49896060777974) rotate(0 52.921875 20.2109375)"><path d="M10.29 1.66 L101.27 -0.7 L105.86 4.75 L106.28 34.55 L103.74 35.93 L95.42 42.32 L7.52 41.29 L-0.35 34.41 L-0.36 9.07 L2.06 2.94 L11.14 -1.5" stroke="none" stroke-width="0" fill="#868e96"></path><path d="M10.11 0 M10.11 0 C35.2 -2.48, 61.56 0.86, 95.74 0 M10.11 0 C40.27 -0.41, 69.3 -1.5, 95.74 0 M95.74 0 C104.24 0.47, 105.12 2.47, 105.84 10.11 M95.74 0 C102.9 1.27, 107.51 1.3, 105.84 10.11 M105.84 10.11 C104.69 14.8, 106.93 20.18, 105.84 30.32 M105.84 10.11 C105.48 18.4, 105.55 24.83, 105.84 30.32 M105.84 30.32 C107.75 37.71, 102.95 39.8, 95.74 40.42 M105.84 30.32 C105.99 36.98, 104.13 39.48, 95.74 40.42 M95.74 40.42 C74.41 39.64, 49.56 40.25, 10.11 40.42 M95.74 40.42 C68.29 39.47, 40.73 40.24, 10.11 40.42 M10.11 40.42 C4.43 41.23, -1.24 36.35, 0 30.32 M10.11 40.42 C2.91 42.67, -1.77 35.49, 0 30.32 M0 30.32 C0.49 23.6, 0.54 20.66, 0 10.11 M0 30.32 C-0.73 25.53, -0.46 20.78, 0 10.11 M0 10.11 C-0.66 5.37, 4.62 -0.29, 10.11 0 M0 10.11 C0.35 1.56, 3.14 1.05, 10.11 0" stroke="#000000" stroke-width="1" fill="none"></path></g><g stroke-linecap="round" transform="translate(52.8203125 339.07317935777974) rotate(0 103.5703125 30)"><path d="M13.21 -1.95 L200.05 2.57 L203.35 3.74 L207.77 12.35 L207.26 51.33 L200.08 56.78 L192.89 61.94 L9.53 60.1 L4.43 55.84 L-1.63 47.7 L1.2 9.88 L4.48 3.52 L8.58 1.52 L15.16 -0.2" stroke="none" stroke-width="0" fill="#ced4da"></path><path d="M15 0 M15 0 C59.73 1.41, 105.52 0.61, 192.14 0 M15 0 C59.11 2.26, 105.61 1.34, 192.14 0 M192.14 0 C200.73 0.27, 206.02 4.39, 207.14 15 M192.14 0 C200.22 -1.91, 208.55 5.08, 207.14 15 M207.14 15 C206.54 24.27, 206.43 30.64, 207.14 45 M207.14 15 C207.44 25.27, 206.4 34.71, 207.14 45 M207.14 45 C207.57 54.87, 203.62 59.57, 192.14 60 M207.14 45 C207.32 53.79, 200.04 61.01, 192.14 60 M192.14 60 C146.07 61.14, 97.35 59.48, 15 60 M192.14 60 C139.2 59.33, 85.7 59.31, 15 60 M15 60 C6.14 60.16, 0.34 53.9, 0 45 M15 60 C7.23 59.22, -0.92 55.05, 0 45 M0 45 C0.95 33.31, -1.22 19.33, 0 15 M0 45 C-0.96 39.54, -0.9 31.83, 0 15 M0 15 C1.59 5.8, 3.61 1.59, 15 0 M0 15 C0.54 3.64, 2.85 -1.45, 15 0" stroke="#000000" stroke-width="1" fill="none"></path></g><g transform="translate(61.500701904296875 344.07317935777974) rotate(0 94.88992309570312 25)"><text x="94.88992309570312" y="0" font-family="Virgil, Segoe UI Emoji" font-size="20px" fill="#000000" text-anchor="middle" style="white-space: pre;" direction="ltr" dominant-baseline="text-before-edge">Other Bundle (Txn)</text><text x="94.88992309570312" y="25" font-family="Virgil, Segoe UI Emoji" font-size="20px" fill="#000000" text-anchor="middle" style="white-space: pre;" direction="ltr" dominant-baseline="text-before-edge">Calldata</text></g><g stroke-linecap="round" transform="translate(108.9296875 252.84661685777974) rotate(0 52.921875 20.2109375)"><path d="M11.17 0.48 L101.19 1.77 L105.38 6.02 L104.11 36.68 L102.64 37.1 L95.78 42.33 L4.79 39.28 L1.44 34.9 L-1.35 8.15 L0.64 2.81 L9.75 -1.82" stroke="none" stroke-width="0" fill="#868e96"></path><path d="M10.11 0 M10.11 0 C43.53 1.51, 72.36 2.3, 95.74 0 M10.11 0 C37.19 1.51, 64.86 -0.11, 95.74 0 M95.74 0 C104.23 1.45, 105.87 3.88, 105.84 10.11 M95.74 0 C103.76 0.08, 104.95 2.6, 105.84 10.11 M105.84 10.11 C107.02 17.91, 104.9 25.2, 105.84 30.32 M105.84 10.11 C105.49 17.16, 104.97 24.61, 105.84 30.32 M105.84 30.32 C105.6 35.7, 101.02 40.59, 95.74 40.42 M105.84 30.32 C105.96 37.19, 102.75 40.17, 95.74 40.42 M95.74 40.42 C69.41 39.38, 46.81 39.87, 10.11 40.42 M95.74 40.42 C73.12 40.04, 48.74 40.68, 10.11 40.42 M10.11 40.42 C1.88 40.34, 1.32 39, 0 30.32 M10.11 40.42 C3.61 42.19, 0.59 37.21, 0 30.32 M0 30.32 C-0.88 22.41, -0.92 19.72, 0 10.11 M0 30.32 C-0.1 25.2, 0.49 19.75, 0 10.11 M0 10.11 C-0.29 2.89, 1.68 -1.99, 10.11 0 M0 10.11 C-1.92 5.36, 1.61 -1.78, 10.11 0" stroke="#000000" stroke-width="1" fill="none"></path></g><g transform="translate(127.32159423828125 260.55755435777974) rotate(0 34.52996826171875 12.5)"><text x="34.52996826171875" y="0" font-family="Virgil, Segoe UI Emoji" font-size="20px" fill="#000000" text-anchor="middle" style="white-space: pre;" direction="ltr" dominant-baseline="text-before-edge">UserOp</text></g><g transform="translate(27.73350220154157 114.296875) rotate(0 62.26995086669922 12.5)"><text x="0" y="0" font-family="Virgil, Segoe UI Emoji" font-size="20px" fill="#000000" text-anchor="start" style="white-space: pre;" direction="ltr" dominant-baseline="text-before-edge">Bundle (Txn)</text></g><g stroke-linecap="round" transform="translate(698.5850647015416 116.97265625) rotate(0 99.666015625 29.3359375)"><path d="M14.07 1.53 L190.36 -0.63 L199.06 6.32 L197.39 12.27 L198.8 52.15 L192.49 57.06 L183.27 56.7 L9.53 59.21 L4.09 53.99 L0.45 46.73 L-1.39 9.79 L4.69 3.3 L9.82 0.04 L14.25 -1.44" stroke="none" stroke-width="0" fill="#ced4da"></path><path d="M14.67 0 M14.67 0 C61.42 0.3, 109.85 -0.3, 184.66 0 M14.67 0 C72.25 -0.72, 131.04 -1.85, 184.66 0 M184.66 0 C193.05 -0.33, 201.31 3.8, 199.33 14.67 M184.66 0 C196.53 -1.78, 198.41 4.89, 199.33 14.67 M199.33 14.67 C198.29 21.89, 199.68 33.23, 199.33 44 M199.33 14.67 C200.09 25.58, 198.18 38.41, 199.33 44 M199.33 44 C201.16 54.46, 193.91 58.95, 184.66 58.67 M199.33 44 C199.49 52.2, 192.52 58.33, 184.66 58.67 M184.66 58.67 C128.21 59.99, 71.35 61.71, 14.67 58.67 M184.66 58.67 C131.61 57.94, 78.84 57.57, 14.67 58.67 M14.67 58.67 C5.46 57.72, -0.82 54.01, 0 44 M14.67 58.67 C2.62 56.97, 0.98 51.88, 0 44 M0 44 C-0.72 34.6, 1.4 28.19, 0 14.67 M0 44 C0.52 33.23, -0.6 22.84, 0 14.67 M0 14.67 C0.58 3.99, 5.79 -0.78, 14.67 0 M0 14.67 C-0.08 2.74, 3.19 -1.38, 14.67 0" stroke="#000000" stroke-width="1" fill="none"></path></g><g transform="translate(778.271092228397 133.80859375) rotate(0 19.97998809814453 12.5)"><text x="19.97998809814453" y="0" font-family="Virgil, Segoe UI Emoji" font-size="20px" fill="#000000" text-anchor="middle" style="white-space: pre;" direction="ltr" dominant-baseline="text-before-edge">SCW</text></g><g stroke-linecap="round" transform="translate(696.8721740765416 140.45703125) rotate(0 99.666015625 29.3359375)"><path d="M13.06 -0.91 L191.32 0.83 L199.15 7.61 L198.28 12.64 L200.15 51.47 L193.69 57.04 L185.45 57.71 L9.77 56.95 L1.94 55.86 L0.67 47.95 L2.15 9.29 L3.94 3.37 L8.09 1.7 L13.53 0.7" stroke="none" stroke-width="0" fill="#ced4da"></path><path d="M14.67 0 M14.67 0 C70.79 0.81, 127.11 -0.51, 184.66 0 M14.67 0 C52.67 -2.56, 92.54 -1.96, 184.66 0 M184.66 0 C193.62 0.67, 198.25 4.2, 199.33 14.67 M184.66 0 C195.21 1.23, 201.43 4.27, 199.33 14.67 M199.33 14.67 C198.94 24.06, 200.11 31.62, 199.33 44 M199.33 14.67 C198.71 21.1, 198.86 28.77, 199.33 44 M199.33 44 C197.94 54.97, 193.35 59.57, 184.66 58.67 M199.33 44 C198.81 51.8, 193.58 59.66, 184.66 58.67 M184.66 58.67 C147.87 58.85, 108.99 56.38, 14.67 58.67 M184.66 58.67 C117.13 57.49, 49.95 58.33, 14.67 58.67 M14.67 58.67 C4.24 56.8, 1.39 53.56, 0 44 M14.67 58.67 C3.79 57.69, -1.78 55.71, 0 44 M0 44 C1.87 34.11, -1.4 20.29, 0 14.67 M0 44 C0.64 38.2, -0.21 29.81, 0 14.67 M0 14.67 C0.37 4.02, 5.36 1.25, 14.67 0 M0 14.67 C-0.26 6.36, 7.16 -1.83, 14.67 0" stroke="#000000" stroke-width="1" fill="none"></path></g><g transform="translate(776.558201603397 157.29296875) rotate(0 19.97998809814453 12.5)"><text x="19.97998809814453" y="0" font-family="Virgil, Segoe UI Emoji" font-size="20px" fill="#000000" text-anchor="middle" style="white-space: pre;" direction="ltr" dominant-baseline="text-before-edge">SCW</text></g><g stroke-linecap="round" transform="translate(697.4776428265416 173.86328125) rotate(0 99.666015625 29.3359375)"><path d="M15.91 -0.23 L192.36 2.89 L195.68 7.01 L200.34 12.82 L197.04 49.95 L192.23 56.28 L183.97 60.26 L7.91 56.78 L2.1 53.98 L1.3 48.3 L-1.23 10.85 L1.87 4.52 L6.98 0.83 L15.59 1.09" stroke="none" stroke-width="0" fill="#ced4da"></path><path d="M14.67 0 M14.67 0 C52.36 -2.88, 92.96 -1.95, 184.66 0 M14.67 0 C56.71 -0.46, 99.84 -0.65, 184.66 0 M184.66 0 C193.49 0, 200.09 5.1, 199.33 14.67 M184.66 0 C194.03 -1.87, 197.08 3.7, 199.33 14.67 M199.33 14.67 C199.76 22.65, 197.92 29.96, 199.33 44 M199.33 14.67 C198.28 23, 199.24 32.77, 199.33 44 M199.33 44 C200.67 54.66, 196.32 57.68, 184.66 58.67 M199.33 44 C199.24 53.53, 193.51 60.92, 184.66 58.67 M184.66 58.67 C136.97 58.13, 87.03 60.28, 14.67 58.67 M184.66 58.67 C128.87 57.28, 74.75 57.29, 14.67 58.67 M14.67 58.67 C6.55 58.65, -1 55.77, 0 44 M14.67 58.67 C5.79 57.82, 0.01 52.62, 0 44 M0 44 C1.44 32.9, -1.3 21.9, 0 14.67 M0 44 C-0.18 33.28, -0.49 21.98, 0 14.67 M0 14.67 C1.53 6.75, 4.54 1.86, 14.67 0 M0 14.67 C-1.8 6.1, 4.89 1.36, 14.67 0" stroke="#000000" stroke-width="1" fill="none"></path></g><g transform="translate(777.163670353397 190.69921875) rotate(0 19.97998809814453 12.5)"><text x="19.97998809814453" y="0" font-family="Virgil, Segoe UI Emoji" font-size="20px" fill="#000000" text-anchor="middle" style="white-space: pre;" direction="ltr" dominant-baseline="text-before-edge">SCW</text></g><g stroke-linecap="round" transform="translate(697.5518615765416 206.96484375) rotate(0 99.666015625 29.3359375)"><path d="M16.22 0.7 L192.33 -0.51 L197.82 7.63 L198.97 10.98 L200.3 50.38 L192.06 56.86 L186.12 58.09 L9.94 58.12 L3.41 56.31 L1.08 46.26 L2.01 10.29 L5.4 4.45 L9.43 -0.52 L15.41 1.85" stroke="none" stroke-width="0" fill="#ced4da"></path><path d="M14.67 0 M14.67 0 C66.49 0.56, 118.73 -1.25, 184.66 0 M14.67 0 C65.18 -0.69, 114.99 -1.29, 184.66 0 M184.66 0 C193.67 -1.45, 201.19 3.8, 199.33 14.67 M184.66 0 C194.7 -1.72, 197.59 6.02, 199.33 14.67 M199.33 14.67 C197.34 21.84, 197.91 29.41, 199.33 44 M199.33 14.67 C198.98 23.73, 198.59 32.63, 199.33 44 M199.33 44 C199.25 54.96, 193.76 57.47, 184.66 58.67 M199.33 44 C200.16 55.4, 194.05 59.75, 184.66 58.67 M184.66 58.67 C116.57 58.01, 50.26 59.24, 14.67 58.67 M184.66 58.67 C118.22 59.29, 50.4 58.93, 14.67 58.67 M14.67 58.67 C5.43 57.9, 1.98 55.54, 0 44 M14.67 58.67 C5.25 59.78, -1.9 52.86, 0 44 M0 44 C-0.89 34.47, -0.23 22.58, 0 14.67 M0 44 C-0.4 35.45, -0.04 27.19, 0 14.67 M0 14.67 C1.03 6.71, 6.71 -0.94, 14.67 0 M0 14.67 C1.91 7.14, 3.13 1.65, 14.67 0" stroke="#000000" stroke-width="1" fill="none"></path></g><g transform="translate(777.237889103397 223.80078125) rotate(0 19.97998809814453 12.5)"><text x="19.97998809814453" y="0" font-family="Virgil, Segoe UI Emoji" font-size="20px" fill="#000000" text-anchor="middle" style="white-space: pre;" direction="ltr" dominant-baseline="text-before-edge">SCW</text></g><g stroke-linecap="round" transform="translate(413.62412720154157 76.970703125) rotate(0 109.740234375 140.619140625)"><path d="M32 0 M32 0 C75.34 -0.56, 117.43 2.18, 187.48 0 M32 0 C68.39 1.04, 105.85 1.69, 187.48 0 M187.48 0 C210.77 1.21, 218.32 10.92, 219.48 32 M187.48 0 C207.65 -1.43, 218.56 9.73, 219.48 32 M219.48 32 C219.1 96.85, 219.98 161.08, 219.48 249.24 M219.48 32 C218.88 92.09, 219.53 153.82, 219.48 249.24 M219.48 249.24 C218.29 272.21, 209.96 283.04, 187.48 281.24 M219.48 249.24 C218.02 270.33, 210.84 283.49, 187.48 281.24 M187.48 281.24 C149.89 280.96, 115.31 281.75, 32 281.24 M187.48 281.24 C136.36 280.33, 86.59 281.17, 32 281.24 M32 281.24 C11.43 279.51, -1.54 272.09, 0 249.24 M32 281.24 C12.58 280.2, 0.16 271.85, 0 249.24 M0 249.24 C-2.01 181.7, -1.54 116.9, 0 32 M0 249.24 C0.22 187.2, 0.47 123.42, 0 32 M0 32 C-1.8 11.94, 10.07 -1.88, 32 0 M0 32 C-2.21 8.99, 12.57 0.35, 32 0" stroke="#000000" stroke-width="1" fill="none"></path></g><g transform="translate(432.07292633484235 375.328125) rotate(0 97.96991729736328 12.5)"><text x="0" y="0" font-family="Virgil, Segoe UI Emoji" font-size="20px" fill="#000000" text-anchor="start" style="white-space: pre;" direction="ltr" dominant-baseline="text-before-edge">Entrypoint Contract</text></g><g stroke-linecap="round" transform="translate(370.68272095154157 47.6328125) rotate(0 299.763671875 189.12109375)"><path d="M32 0 M32 0 C241.72 0, 451.44 0, 567.53 0 M32 0 C153.21 0, 274.42 0, 567.53 0 M567.53 0 C588.86 0, 599.53 10.67, 599.53 32 M567.53 0 C588.86 0, 599.53 10.67, 599.53 32 M599.53 32 C599.53 100.13, 599.53 168.27, 599.53 346.24 M599.53 32 C599.53 106.13, 599.53 180.26, 599.53 346.24 M599.53 346.24 C599.53 367.58, 588.86 378.24, 567.53 378.24 M599.53 346.24 C599.53 367.58, 588.86 378.24, 567.53 378.24 M567.53 378.24 C403.05 378.24, 238.58 378.24, 32 378.24 M567.53 378.24 C356.33 378.24, 145.14 378.24, 32 378.24 M32 378.24 C10.67 378.24, 0 367.58, 0 346.24 M32 378.24 C10.67 378.24, 0 367.58, 0 346.24 M0 346.24 C0 256.22, 0 166.19, 0 32 M0 346.24 C0 262.05, 0 177.85, 0 32 M0 32 C0 10.67, 10.67 0, 32 0 M0 32 C0 10.67, 10.67 0, 32 0" stroke="#000000" stroke-width="2" fill="none"></path></g><g transform="translate(614.1670959515416 10) rotate(0 65.74995422363281 12.5)"><text x="0" y="0" font-family="Virgil, Segoe UI Emoji" font-size="20px" fill="#000000" text-anchor="start" style="white-space: pre;" direction="ltr" dominant-baseline="text-before-edge">On Blockchain</text></g><g stroke-linecap="round"><g transform="translate(414.03428345154157 134.6171875) rotate(0 109.302734375 -0.158203125)"><path d="M0 0 C36.43 -0.05, 182.17 -0.26, 218.61 -0.32 M0 0 C36.43 -0.05, 182.17 -0.26, 218.61 -0.32" stroke="#000000" stroke-width="2" fill="none"></path></g></g><mask></mask><g stroke-linecap="round"><g transform="translate(413.18858032654157 183.916015625) rotate(0 109.302734375 -0.158203125)"><path d="M0 0 C36.43 -0.05, 182.17 -0.26, 218.61 -0.32 M0 0 C36.43 -0.05, 182.17 -0.26, 218.61 -0.32" stroke="#000000" stroke-width="2" fill="none"></path></g></g><mask></mask><g stroke-linecap="round"><g transform="translate(410.05967407654157 243.470703125) rotate(0 109.302734375 -0.158203125)"><path d="M0 0 C36.43 -0.05, 182.17 -0.26, 218.61 -0.32 M0 0 C36.43 -0.05, 182.17 -0.26, 218.61 -0.32" stroke="#000000" stroke-width="2" fill="none"></path></g></g><mask></mask><g stroke-linecap="round"><g transform="translate(415.71201782654157 305.580078125) rotate(0 109.302734375 -0.158203125)"><path d="M0 0 C36.43 -0.05, 182.17 -0.26, 218.61 -0.32 M0 0 C36.43 -0.05, 182.17 -0.26, 218.61 -0.32" stroke="#000000" stroke-width="2" fill="none"></path></g></g><mask></mask><g transform="translate(461.46006470154157 96.86328125) rotate(0 55.219947814941406 12.5)"><text x="0" y="0" font-family="Virgil, Segoe UI Emoji" font-size="20px" fill="#000000" text-anchor="start" style="white-space: pre;" direction="ltr" dominant-baseline="text-before-edge">handleOps()</text></g><g stroke-linecap="round"><g transform="translate(179.57334595154157 151.609375) rotate(0 118.642578125 -23.392691868512856)"><path d="M0 0 C4.81 -7.12, -10.67 -35.13, 28.88 -42.69 C68.43 -50.26, 202.55 -44.93, 237.29 -45.38 M0 0 C4.81 -7.12, -10.67 -35.13, 28.88 -42.69 C68.43 -50.26, 202.55 -44.93, 237.29 -45.38" stroke="#000000" stroke-width="2" fill="none"></path></g><g transform="translate(179.57334595154157 151.609375) rotate(0 118.642578125 -23.392691868512856)"><path d="M208.97 -35.47 C215.15 -37.63, 221.34 -39.8, 237.29 -45.38 M208.97 -35.47 C218.82 -38.92, 228.67 -42.37, 237.29 -45.38" stroke="#000000" stroke-width="2" fill="none"></path></g><g transform="translate(179.57334595154157 151.609375) rotate(0 118.642578125 -23.392691868512856)"><path d="M209.22 -55.99 C215.35 -53.67, 221.48 -51.36, 237.29 -45.38 M209.22 -55.99 C218.98 -52.3, 228.75 -48.61, 237.29 -45.38" stroke="#000000" stroke-width="2" fill="none"></path></g></g><mask></mask><g stroke-linecap="round"><g transform="translate(633.1241272015416 96.86328125) rotate(0 78.25913817789444 6.468678795283296)"><path d="M0 0 C23.42 -0.57, 114.69 -6.28, 140.52 -3.42 C166.34 -0.56, 152.55 13.72, 154.95 17.15" stroke="#000000" stroke-width="2.5" fill="none" stroke-dasharray="1.5 8"></path></g><g transform="translate(633.1241272015416 96.86328125) rotate(0 78.25913817789444 6.468678795283296)"><path d="M152.21 4.89 C153.07 8.73, 153.92 12.56, 154.95 17.15" stroke="#000000" stroke-width="2.5" fill="none" stroke-dasharray="1.5 6"></path></g><g transform="translate(633.1241272015416 96.86328125) rotate(0 78.25913817789444 6.468678795283296)"><path d="M160.73 5.99 C158.92 9.48, 157.12 12.97, 154.95 17.15" stroke="#000000" stroke-width="2.5" fill="none" stroke-dasharray="1.5 6"></path></g></g><mask></mask><g stroke-linecap="round"><g transform="translate(630.9756897015416 122.68359375) rotate(0 35.01953125 62.93058948598397)"><path d="M0 0 C5.15 1.92, 25.48 -7.82, 30.92 11.52 C36.36 30.86, 26.11 97.31, 32.63 116.06 C39.14 134.81, 63.8 122.68, 70.04 124.01" stroke="#000000" stroke-width="2.5" fill="none" stroke-dasharray="1.5 8"></path></g><g transform="translate(630.9756897015416 122.68359375) rotate(0 35.01953125 62.93058948598397)"><path d="M53.06 132.8 C56.58 130.97, 60.11 129.15, 70.04 124.01" stroke="#000000" stroke-width="2.5" fill="none" stroke-dasharray="1.5 6"></path></g><g transform="translate(630.9756897015416 122.68359375) rotate(0 35.01953125 62.93058948598397)"><path d="M51.38 119.83 C55.25 120.7, 59.13 121.56, 70.04 124.01" stroke="#000000" stroke-width="2.5" fill="none" stroke-dasharray="1.5 6"></path></g></g><mask></mask><g transform="translate(179.45225220154157 50.078125) rotate(0 91.12992095947266 25)"><text x="0" y="0" font-family="Virgil, Segoe UI Emoji" font-size="20px" fill="#000000" text-anchor="start" style="white-space: pre;" direction="ltr" dominant-baseline="text-before-edge">Submitted by EOA</text><text x="0" y="25" font-family="Virgil, Segoe UI Emoji" font-size="20px" fill="#000000" text-anchor="start" style="white-space: pre;" direction="ltr" dominant-baseline="text-before-edge">(usually a bundler)</text></g><g transform="translate(229.78037720154157 476.5640625) rotate(0 224.875 16.100000000000023)"><text x="0" y="0" font-family="Helvetica, Segoe UI Emoji" font-size="28px" fill="#000000" text-anchor="start" style="white-space: pre;" direction="ltr" dominant-baseline="text-before-edge">A simplified flow of UserOps in 4337</text></g></svg>